<svg xmlns="http://www.w3.org/2000/svg" width="165" height="137" viewBox="0 0 165 137"><g><g><path fill="#c5c1c1" d="M122.636 87.294s9.376 4.481 25.733.164l9.373-3.094 5.56 4.079-2.672 2.07-7.684 3.46-8.432 6.01-11.185 13.123-13.073 7.658-12.88 5.007-9.078-.354 13.489-13.334 6.273-9.453zM73.941 20.712l3.671-3.465s7.23-3.255 16.867.405l2.217-3.472a4.654 4.654 0 0 1 6.428-1.418l.57.364a4.654 4.654 0 0 1 1.419 6.427l-2.055 3.219c8.813 8.213 5.917 20.954 5.917 20.954L74.336 21.612zM26.698 34.613l10.533-7.652 14.507-5.78 7.14-1.311 45.808 29.245s16.652 52.566-46.886 81.419l-43.6-27.835-3.004-5.932-3.112-15.82.604-17.867 6.66-14.132zm10.317 41.199L58.66 89.63l12.278-19.232-6.217-14.121-15.427.303z"/></g><g><path fill="#524f4f" d="M10.97 99.146A59.03 59.03 0 0 1 6.76 77.79l-.107.034c-.881-2.74-3.155-10.122-5.22-19.47-3.421-15.491-.044-34.785 8.214-46.918C14.005 5.033 19.33 1.166 25.048.254c17.017-2.716 23.496 17.728 24.255 20.359a58.748 58.748 0 0 1 23.129-2.005c7.297-4.989 16.584-5.538 24.359-1.554l2.265-3.55a5.887 5.887 0 0 1 8.122-1.79l.57.363a5.888 5.888 0 0 1 1.793 8.122l-2.268 3.552c6.866 5.378 10.264 14.02 8.812 22.726 6.39 10.476 9.21 22.562 8.472 34.455a25.044 25.044 0 0 0 14.783 1.934l14.385-2.522 9.622 6.143a2.57 2.57 0 0 1 1.175 2.573 2.564 2.564 0 0 1-1.869 2.115c-3.758 1.049-9.582 3.388-15.985 8.574-2.681 2.172-4.791 4.66-7.025 7.297-4.362 5.146-9.306 10.98-20.034 16.322-7.878 3.923-16.757 4.36-22.82 4.038l.003-.045a59.13 59.13 0 0 1-27.896 8.766c-2.782.151-5.53-.585-7.947-2.128l-44.704-28.54c-2.417-1.544-4.242-3.726-5.276-6.313zm.183-44.319c-3.256-2.282-4.469-7.594-3.604-15.798C8.5 30 11.34 21.625 15.544 15.448c2.248-3.304 5.917-7.4 10.63-8.152 4.186-.668 7.75.883 10.037 4.364 2.445 3.727 3.013 9.119 1.69 13.608a59.808 59.808 0 0 1 9.063-3.92c-.555-2.04-6.17-21.122-21.528-18.672-5.034.803-9.792 4.31-13.76 10.14C3.767 24.434.54 42.943 3.828 57.826a229.458 229.458 0 0 0 3.276 12.99 59.12 59.12 0 0 1 4.048-15.989zm4.846-9.351c4.755-7.449 11.078-13.596 18.357-18.154 2.447-4.033 2.373-10.4-.196-14.316-1.219-1.859-3.527-3.937-7.598-3.287-3.85.614-7.013 4.205-8.99 7.11-3.98 5.848-6.673 13.824-7.583 22.458-.7 6.645.071 11.284 2.175 13.212A58.547 58.547 0 0 1 16 45.476zm99.465 63.5a58.81 58.81 0 0 1-15.197 16.062c5.417-.026 12.179-.843 18.247-3.865 10.277-5.118 15.048-10.748 19.258-15.714 2.31-2.726 4.491-5.3 7.352-7.617 6.73-5.45 12.888-7.919 16.868-9.03.032-.008.09-.025.104-.114.013-.091-.042-.127-.069-.144l-8.818-5.63-13.444 2.358a27.509 27.509 0 0 1-15.425-1.765c-.943 8.928-3.904 17.671-8.876 25.46zm-21.648-77.03l-1.32 2.067-4.978-3.178-16.636 26.06 6.217 14.12-13.291 20.819-23.712-15.138 13.292-20.819 15.426-.303 16.636-26.06-13.26-8.464c-21.344-2.443-42.564 7.641-54.123 25.746-9.774 15.31-11.576 34.54-4.82 51.44.843 2.107 2.336 3.89 4.318 5.155l44.704 28.54c1.982 1.266 4.227 1.87 6.494 1.747 18.173-.984 34.859-10.712 44.633-26.022 11.558-18.105 11.775-41.598.575-59.933l-14.26-9.104 1.32-2.067 12.815 8.182c.835-8.046-2.889-15.855-9.809-20.273l-6.564-4.19c-6.92-4.418-15.57-4.509-22.518-.366zm14.736 20.844l2.251-.975c3.384 7.81 5.172 16.122 5.315 24.707l-2.453.04c-.138-8.262-1.858-16.26-5.113-23.772zm4.959 29.371l2.446.177a66.178 66.178 0 0 1-.78 6.418l-2.418-.416c.35-2.039.603-4.118.752-6.179zm-6.038-63.283a3.432 3.432 0 0 0-1.045-4.734l-.57-.363a3.432 3.432 0 0 0-4.734 1.044l-2.207 3.458 6.349 4.053zM74.325 70.801L68.701 58.03l-13.952.273L43.484 75.95 63.06 88.446z"/></g></g></svg>