<svg xmlns="http://www.w3.org/2000/svg" width="208" height="172" viewBox="0 0 208 172"><g><g><path fill="#c5c1c1" d="M58.66 129.7l7.923 11.937 17.034 16.838-11.463.447-16.266-6.323-16.51-9.67-14.124-16.573-10.648-7.59-9.704-4.369-3.374-2.615 7.02-5.15 11.838 3.907c20.655 5.452 32.496-.207 32.496-.207zm55.217-102.313L70.134 55.313s-3.658-16.09 7.472-26.462l-2.595-4.065a5.878 5.878 0 0 1 1.793-8.116l.72-.46A5.878 5.878 0 0 1 85.64 18l2.8 4.385c12.17-4.621 21.3-.51 21.3-.51l4.636 4.374zm74.492 34.52l8.411 17.847.763 22.563-3.93 19.978-3.794 7.49-55.06 35.152C54.521 128.5 75.55 62.117 75.55 62.117l57.848-36.93 9.017 1.656 18.32 7.299 13.3 9.662zm-42.867 9.638l-19.48-.383-7.853 17.833 15.506 24.287 27.332-17.45z"/></g><g><path fill="#524f4f" d="M187.237 133.271l-56.454 36.041c-3.053 1.95-6.523 2.879-10.036 2.689A74.672 74.672 0 0 1 85.52 160.93l.003.057c-7.655.407-18.869-.145-28.817-5.1-13.548-6.746-19.791-14.112-25.3-20.612-2.82-3.329-5.485-6.472-8.871-9.215-8.087-6.548-15.441-9.503-20.187-10.827a3.238 3.238 0 0 1-2.36-2.671 3.245 3.245 0 0 1 1.484-3.249l12.151-7.758 18.165 3.185a31.628 31.628 0 0 0 18.67-2.443c-.932-15.018 2.63-30.281 10.698-43.51-1.833-10.995 2.457-21.908 11.128-28.7l-2.864-4.486c-2.204-3.45-1.187-8.051 2.265-10.255l.719-.46c3.452-2.204 8.053-1.189 10.256 2.262l2.862 4.483c9.818-5.032 21.545-4.338 30.761 1.962 9.943-1.131 19.864-.2 29.208 2.531.959-3.322 9.14-29.14 30.63-25.71 7.22 1.152 13.946 6.036 19.449 14.121 10.428 15.322 14.693 39.687 10.372 59.25-2.607 11.805-5.478 21.127-6.592 24.588l-.135-.043a74.545 74.545 0 0 1-5.315 26.969c-1.306 3.267-3.61 6.023-6.662 7.972zM159.888 32.003c-1.67-5.669-.952-12.478 2.136-17.184 2.886-4.397 7.388-6.355 12.673-5.511 5.953.95 10.586 6.122 13.425 10.294 5.309 7.8 8.894 18.376 10.097 29.78 1.092 10.36-.44 17.068-4.552 19.95a74.658 74.658 0 0 1 5.112 20.191 289.778 289.778 0 0 0 4.138-16.404c4.15-18.795.076-42.17-9.91-56.84-5.01-7.364-11.02-11.792-17.376-12.806-19.396-3.094-26.486 21.004-27.187 23.581a75.528 75.528 0 0 1 11.444 4.95zm27.66 25.52a73.934 73.934 0 0 1 4.842 8.869c2.657-2.435 3.632-8.293 2.748-16.685-1.15-10.903-4.55-20.976-9.578-28.362-2.495-3.667-6.49-8.203-11.352-8.978-5.141-.821-8.056 1.804-9.594 4.151-3.246 4.945-3.34 12.986-.248 18.08 9.192 5.755 17.176 13.518 23.181 22.924zm-125.609 80.19c-6.279-9.835-10.017-20.876-11.21-32.15a34.74 34.74 0 0 1-19.478 2.228l-16.978-2.977-11.136 7.11c-.033.021-.103.066-.086.182.017.112.091.133.13.143 5.027 1.403 12.804 4.521 21.303 11.404 3.612 2.926 6.367 6.176 9.284 9.619 5.316 6.271 11.341 13.38 24.32 19.844 7.663 3.816 16.201 4.847 23.042 4.88a74.267 74.267 0 0 1-19.191-20.283zm18.227-91.46l1.667 2.61L63.824 60.36c-14.143 23.154-13.87 52.823.727 75.686 12.343 19.334 33.414 31.619 56.365 32.861 2.861.155 5.697-.607 8.2-2.205l56.454-36.042c2.503-1.598 4.388-3.849 5.452-6.51 8.532-21.342 6.257-45.626-6.086-64.96-14.597-22.864-41.395-35.598-68.35-32.514l-16.744 10.69 21.01 32.909 19.48.382 16.784 26.291-29.944 19.117-16.784-26.29 7.852-17.833-21.01-32.909-6.286 4.014-1.667-2.61 23.818-15.206c-8.773-5.232-19.698-5.118-28.436.461l-8.29 5.293c-8.738 5.578-13.44 15.44-12.387 25.6zM64.211 96.779l-3.098-.05c.181-10.842 2.439-21.34 6.712-31.201l2.842 1.23c-4.11 9.487-6.282 19.588-6.456 30.021zm1.144 14.874l-3.054.525a83.55 83.55 0 0 1-.985-8.104l3.09-.224a80.47 80.47 0 0 0 .949 7.803zm14.693-92.837a4.334 4.334 0 0 0-5.978-1.32l-.72.46a4.334 4.334 0 0 0-1.32 5.978l2.788 4.366 8.017-5.118zm48.07 92.971l24.72-15.782-14.226-22.283-17.62-.346-7.101 16.128z"/></g></g></svg>