<svg xmlns="http://www.w3.org/2000/svg" width="174" height="224" viewBox="0 0 174 224"><g><g><path fill="#c5c1c1" d="M163.482 166.174l-56.102 53.343-14.313 2.737-11.39-4.304 75.299-71.595zM30.574 123.19l30.528-29.027 65.763 46.925-58.824 55.93zM93.265 89.3l-6.708-4.03 12.036-20.04a6.534 6.534 0 0 1-.004-6.262L124.97 10.53c2.543-4.667 8.475-6.254 13.01-3.48 4.537 2.774 5.828 8.779 2.833 13.17L109.73 65.782a6.514 6.514 0 0 1-3.954 2.69z"/></g><g><path fill="#524f4f" d="M165.628 167.616l-51.471 48.94c-4.3 4.088-9.689 6.681-15.173 7.3-11.04 1.245-21.442-4.262-26.5-14.03L24.782 117.69l-24.326-8.8L63.58 48.873l7.563 24.738 10.952 6.39L93.23 61.786a8.142 8.142 0 0 1 .08-7.652L119.69 5.696A10.808 10.808 0 0 1 126.45.38a10.81 10.81 0 0 1 8.511 1.233 10.815 10.815 0 0 1 4.976 7.016c.635 2.95.048 5.947-1.652 8.44L107.2 62.628a8.122 8.122 0 0 1-4.67 3.294L90.813 85.089l69.598 40.607c3.942 2.3 7.166 5.35 9.323 8.825 6.71 10.806 5.022 24.415-4.107 33.095zM96.218 64.987a8.248 8.248 0 0 1-.815-.568l-10.52 17.21 3.143 1.833 10.679-17.468a8.156 8.156 0 0 1-2.488-1.007zM6.463 107.633l18.072 6.539 43.043-40.927.114.12-5.673-18.556zm68.886 100.71a23.344 23.344 0 0 0 2.146 3.397l84.905-80.73a26.345 26.345 0 0 0-3.613-2.527l-89.624-52.29-41.705 39.653zM98.62 220.65c4.79-.54 9.518-2.825 13.312-6.432l51.471-48.94c8.009-7.615 9.485-19.562 3.59-29.054a20.609 20.609 0 0 0-2.258-2.979l-85.11 80.924c4.888 4.835 11.785 7.294 18.995 6.481zM123.983 5.337a7.715 7.715 0 0 0-1.458 1.904L96.144 55.678a4.922 4.922 0 0 0 1.756 6.557 4.918 4.918 0 0 0 6.635-1.425l31.083-45.561a7.614 7.614 0 0 0 1.164-5.944 7.619 7.619 0 0 0-3.505-4.94 7.614 7.614 0 0 0-5.993-.869 7.627 7.627 0 0 0-3.3 1.84zM67.791 160.63l-2.793 1.615-3.745-6.47 2.792-1.616zm-7.7-13.301l-2.792 1.616-15.188-26.238 2.792-1.616z"/></g></g></svg>