<svg xmlns="http://www.w3.org/2000/svg" width="147" height="189" viewBox="0 0 147 189"><g><g><path fill="#c5c1c1" d="M73.146 185.87L24.17 141.042l3.66-8.497 12.963 1.27 42.383 47.073zm19.052-9.921l-37.939-49.16 4.907-10.487 14.002 4.07 28.786 50.733zm19.1-9.483L86.34 112.059l5.382-11.236 12 2.435 16.232 58.91zm33.513-22.647l.15 5.933-13.966 6.934-14.27-57.94 8.359-12.486 14.475 6.288zm-14.174-86.751l7.13 7.493L141 73.047l-1.923 5.916-18.79-5.125-11.293 19.14-22.077-2.571L76.4 109.62l-21.66-3.239-10.512 19.213-23.855-1.397-4.601 12.99c-3.94-3.5-4.881-7.023-6.293-15.557-1.41-8.534 6.428-16.032 6.428-16.032L122.226 52.81zM62.568 34.625c4.116 8.29.733 18.347-7.557 22.463-8.29 4.116-18.346.732-22.462-7.558s-.733-18.347 7.557-22.463c8.29-4.116 18.346-.732 22.462 7.558z"/></g><g><path fill="#524f4f" d="M78.842 170.271l-34.616-43.288-22.588-2.218-5.353 15.108 48.225 45.033a5.144 5.144 0 0 0 5.772.844l34.018-16.89-25.47-51.3 2.474-1.227 25.47 51.298 16.396-8.14-7.855-31.353 2.679-.671 7.708 30.767 15.09-7.493a5.144 5.144 0 0 0 2.817-5.108l-6.724-65.637-15.301-4.855-11.866 19.294 5.957 23.775-2.679.672-6.035-24.087-19.296-2.88L77.15 111.13l-21.66-3.24-9.342 17.074L81 168.546zm63.178-17.056l-70.51 35.008a7.919 7.919 0 0 1-8.885-1.3l-47.78-44.618c-4.915.784-9.148-2.942-11.231-7.137-7.1-14.298-1.95-31.537 11.412-39.723-5.595-11.784-.716-25.975 11.015-31.799l12.002-5.959c-6.012-.6-11.598-4.183-14.477-9.982-4.448-8.958-.778-19.865 8.18-24.312.13-.065.262-.128.393-.19-.256-.7-.5-1.454-.729-2.248-2.41.739-8.182 2.049-12.892-.514-5.989-3.259-7.653-11.361-7.721-11.705l-.223-1.126 1.067-.425c.325-.13 8.032-3.132 14.02.127 1.589.864 2.873 2.069 3.904 3.379-.35-4.137-.202-8.094.674-10.697l2.617.881c-1.592 4.731-.295 15.391 1.867 21.352 8.274-2.423 17.371 1.36 21.336 9.346 2.88 5.799 2.357 12.414-.8 17.566l15.005-7.45c11.73-5.824 25.985-1.133 31.99 10.447 14.598-5.697 31.443.622 38.543 14.92 2.083 4.196 2.491 9.82-1.103 13.261l6.661 65.034a7.919 7.919 0 0 1-4.335 7.864zM42.075 81.88l1.228 2.473-24.65 12.239C4.89 103.425-.745 120.179 6.087 133.94c1.47 2.962 4.214 5.647 7.35 5.705l6.32-17.84 23.697 2.326 10.537-19.256 21.66 3.238L86.168 88.9l21.719 3.243 12.475-20.287 18.063 5.733c1.85-2.533 1.369-6.342-.102-9.303-6.832-13.762-23.586-19.399-37.348-12.566L52.31 79.88l-1.228-2.473 48.641-24.15c-5.36-10.14-17.9-14.225-28.231-9.095L27.269 66.119c-10.33 5.13-14.658 17.59-9.82 27.988zm-9.101-56.014c-7.594 3.77-10.706 13.017-6.935 20.611 3.763 7.58 12.98 10.694 20.565 6.96l.095-.048c7.56-3.785 10.65-13.01 6.887-20.588-3.771-7.595-13.017-10.706-20.612-6.935zM13.814 9.37c.642 2.145 2.38 6.663 6.024 8.646 3.642 1.981 8.377.989 10.528.363-.643-2.144-2.382-6.66-6.024-8.641-3.658-1.99-8.382-.995-10.529-.368z"/></g></g></svg>