<svg xmlns="http://www.w3.org/2000/svg" width="103" height="165" viewBox="0 0 103 165"><g><g><path fill="#c5c1c1" d="M100.518 154.467L37.495 101.25 92.16 71.78zM25.538 3.436c14.083-7.593 31.656-2.328 39.25 11.759 6.614 12.266 3.48 27.177-6.74 35.839a29.09 29.09 0 0 1 4.23 5.933 28.908 28.908 0 0 1 3.113 18.372L24.975 97.282A28.909 28.909 0 0 1 11.18 84.513C4.548 72.21 7.704 57.248 17.973 48.575a29.04 29.04 0 0 1-4.186-5.885C6.193 28.603 11.453 11.03 25.537 3.436z"/></g><g><path fill="#524f4f" d="M14.304 58.233l3.336 2.166 3.976.024-2.165 3.335-.024 3.977-3.335-2.166-3.976-.024 2.165-3.335zm-3.138 15.063l2.188 1.421 2.608.016-1.42 2.188-.016 2.608-2.187-1.42-2.608-.017 1.42-2.187zm86.863 67.697l-8.39-2.514-2.094 6.876-1.67-.51 2.09-6.867-17.403-5.214-1.797 6.035 29.251 23.782a1.387 1.387 0 0 0 1.576.149c.524-.283.802-.806.742-1.398l-2.119-20.961zm-29.14-8.73l-12.925-3.872 11.334 9.215zm-13.015-22.83l-15.552-4.61-2.655 8.692 13.661 11.107zm-17.227-5.107l-19.332-5.732 16.89 13.732zM18.333 96.48l.031.01.19-.103c-5.662-2.746-10.224-7.118-13.233-12.7C-.482 72.923 1.01 60.148 8.086 51.074c-1.665-1.8-3.1-3.81-4.274-5.99-7.64-14.17-2.33-31.913 11.838-39.551C29.818-2.104 47.56 3.211 55.2 17.382c.279.517.547 1.053.797 1.59l-1.584.736a28.03 28.03 0 0 0-.75-1.497C46.478 4.888 29.798-.11 16.478 7.07 3.16 14.254-1.834 30.935 5.35 44.257a27.543 27.543 0 0 0 3.862 5.461 29.752 29.752 0 0 1 8.236-6.54 29.713 29.713 0 0 1 15.777-3.53 29.794 29.794 0 0 1 11.64-11.25c14.511-7.824 32.683-2.38 40.508 12.134a29.732 29.732 0 0 1 3.453 11.333l-1.74.166a27.992 27.992 0 0 0-3.25-10.67c-7.368-13.667-24.478-18.792-38.142-11.426a28.056 28.056 0 0 0-10.532 9.882c9.333 1.123 18.003 6.61 22.793 15.496 3.008 5.578 4.155 11.796 3.337 18.036l27.882-15.031a1.8 1.8 0 0 1 2.646 1.405l10.252 101.434a3.123 3.123 0 0 1-1.65 3.112 3.123 3.123 0 0 1-3.506-.332L17.809 99.621a1.797 1.797 0 0 1-.657-1.567c.057-.6.407-1.13.938-1.416l.234-.126zm20.824 6.174l4.394-14.388 1.67.51-4.389 14.375 15.542 4.608 4.943-16.518-11.243-3.396.504-1.673 11.24 3.395 3.374-11.274 1.673.5-3.375 11.279 16.478 4.977 5.211-17.506-10.243-3.102.505-1.672 10.237 3.1 1.26-4.23 1.673.498-1.262 4.238 4.537 1.373-1.805-17.852-.079-.043-69.262 37.34zM86.851 78.05l-5.212 17.505 12.426 3.752-1.989-19.675zm-5.71 19.179l-4.89 16.424 11.194 3.319-.496 1.675-11.196-3.32-4.693 15.763 17.414 5.217 6.892-22.635.155.047-1.266-12.529zm9.006 39.58l7.949 2.38-2.162-21.385zM62.99 91.746l-4.94 16.51 16.528 4.9 4.892-16.433zm-5.44 18.183l-4.7 15.704 16.538 4.955 4.692-15.758zm1.888-35.971c.99-6.155-.054-12.316-3.02-17.818-7.368-13.667-24.478-18.792-38.141-11.426C4.613 52.08-.51 69.192 6.858 82.858c2.995 5.556 7.621 9.838 13.378 12.384l-.138.314L59.992 74.05z"/></g></g></svg>