<svg xmlns="http://www.w3.org/2000/svg" width="149" height="124" viewBox="0 0 149 124"><g><g><path fill="#c5c1c1" d="M76.127 121.248H15.57l-9.59-6.163-4.136-8.58h81.278zM23.951 25.24h32.952L68.89 87.29H5.396zm53.806 14.58l-1.63-5.9 17.625-4.873a5.111 5.111 0 0 1 3.373-3.553l41.064-13.239a7.27 7.27 0 0 1 9.252 5.04c1.076 4.017-1.429 8.118-5.493 8.992l-42.18 9.075a5.096 5.096 0 0 1-3.691-.606z"/></g><g><path fill="#524f4f" d="M76.567 123.222H21.008c-4.642 0-9.094-1.435-12.536-4.04-6.93-5.245-9.859-13.973-7.46-22.237L23.631 19 14.583.901H82.72L73.672 19l2.765 9.526 16.131-4.324a6.369 6.369 0 0 1 4.17-4.295L137.802 6.67a8.455 8.455 0 0 1 6.697.628 8.456 8.456 0 0 1 4.16 5.287 8.46 8.46 0 0 1-.96 6.66 8.453 8.453 0 0 1-5.486 3.893l-42.18 9.075a6.354 6.354 0 0 1-4.423-.65L78.639 36.11l17.567 60.535c.996 3.428 1.178 6.896.529 10.028-2.021 9.743-10.314 16.548-20.167 16.548zm15.969-95.594a6.451 6.451 0 0 1-.156-.76l-15.24 4.084.794 2.734 15.47-4.146a6.38 6.38 0 0 1-.868-1.912zM18.668 3.425l6.72 13.448H71.85v.13l6.785-13.578zM3.435 97.65a18.259 18.259 0 0 0-.614 3.082h91.647a20.61 20.61 0 0 0-.686-3.38L71.16 19.397H26.143zm6.56 19.52c3.006 2.275 6.918 3.528 11.013 3.528h55.559c8.644 0 15.92-5.977 17.695-14.536.194-.935.303-1.908.325-2.905H2.72c.165 5.376 2.749 10.487 7.274 13.913zM140.428 8.779c-.62 0-1.243.097-1.853.293L97.512 22.311a3.85 3.85 0 0 0-2.539 4.664 3.847 3.847 0 0 0 4.53 2.769l42.18-9.075a5.955 5.955 0 0 0 3.862-2.742 5.96 5.96 0 0 0 .677-4.69 5.956 5.956 0 0 0-2.93-3.723 5.966 5.966 0 0 0-2.863-.736zM24.868 66.525l-2.454-.59 1.364-5.686 2.454.59zm2.804-11.69l-2.454-.59 5.533-23.06 2.454.589z"/></g></g></svg>