<svg xmlns="http://www.w3.org/2000/svg" width="173.363" height="224.028" viewBox="381 -57 173.363 224.028"><path d="m546.172 110.613-51.471 48.94a27.207 27.207 0 0 1-12.232 6.779 23.841 23.841 0 0 1-2.94.522 27.54 27.54 0 0 1-3.089.174 26.19 26.19 0 0 1-23.412-14.204l-47.702-92.135-24.326-8.8 63.123-60.018 7.563 24.738L462.638 23l11.136-18.215a8.134 8.134 0 0 1-.686-1.834 8.124 8.124 0 0 1 .66-5.62 8.308 8.308 0 0 1 .105-.198l26.382-48.438a10.808 10.808 0 0 1 6.758-5.317 11.113 11.113 0 0 1 1.71-.317c.379-.04.757-.06 1.135-.06a10.819 10.819 0 0 1 5.666 1.61 10.815 10.815 0 0 1 4.976 7.016 11.232 11.232 0 0 1 .136.756c.076.525.113 1.05.113 1.57a10.8 10.8 0 0 1-1.901 6.113L487.745 5.627a8.188 8.188 0 0 1-1.123 1.322 8.146 8.146 0 0 1-3.548 1.972l-11.717 19.166 69.6 40.607a28.234 28.234 0 0 1 6.965 5.665 23.698 23.698 0 0 1 2.357 3.16 27.012 27.012 0 0 1 3.768 10.08c1.251 7.988-1.226 16.218-7.133 22.282a27.22 27.22 0 0 1-.742.732Zm-138.17-51.77 47.892 92.499a22.987 22.987 0 0 0 2.145 3.397l84.907-80.732a22.016 22.016 0 0 0-.225-.183 26.448 26.448 0 0 0-3.39-2.343l-89.623-52.29-21.549 20.488-20.156 19.165Zm52.17 98.322a22.987 22.987 0 0 0 16.276 6.635 24.228 24.228 0 0 0 2.717-.153 22.803 22.803 0 0 0 10.867-4.384 25.388 25.388 0 0 0 2.445-2.048l51.471-48.94c8.008-7.615 9.484-19.562 3.59-29.055a22.016 22.016 0 0 0-2.258-2.978l-42.637 40.54-42.472 40.383ZM387.006 50.63l18.073 6.538 20.855-19.83 22.188-21.096.114.12-5.674-18.556-55.556 52.824Zm117.52-102.296a7.715 7.715 0 0 0-1.458 1.904L476.687-1.324a4.922 4.922 0 0 0 1.617 6.468 5.022 5.022 0 0 0 .14.089A4.918 4.918 0 0 0 484.941 4a5.02 5.02 0 0 0 .137-.192l31.083-45.562a7.609 7.609 0 0 0 1.339-4.305c0-.368-.027-.737-.08-1.107a7.919 7.919 0 0 0-.095-.531 7.619 7.619 0 0 0-3.505-4.94 7.614 7.614 0 0 0-5.993-.869 7.627 7.627 0 0 0-3.301 1.84ZM440.635 90.328l-2.792 1.616-15.188-26.239 2.792-1.615 15.188 26.238Zm24.79-65.702 3.144 1.834 10.68-17.468a8.12 8.12 0 0 1-2.208-.843 8.307 8.307 0 0 1-.28-.164 8.134 8.134 0 0 1-.815-.567l-10.52 17.208Zm-17.09 79.003-2.793 1.615-3.745-6.47 2.792-1.616 3.745 6.47Z" fill="rgba(82, 79, 79, 1)" fill-rule="evenodd" data-name="Shape 5 copy 4"/></svg>